<mxfile host="app.diagrams.net" modified="2023-11-26T09:23:42.931Z" agent="Mozilla/5.0 (Windows NT 10.0; Win64; x64) AppleWebKit/537.36 (KHTML, like Gecko) Chrome/119.0.0.0 Safari/537.36 Edg/119.0.0.0" etag="Zj3Xa0AiMmBbZ65SKr2j" version="22.1.4" type="device">
  <diagram id="C5RBs43oDa-KdzZeNtuy" name="Page-1">
    <mxGraphModel dx="1386" dy="793" grid="0" gridSize="10" guides="1" tooltips="1" connect="1" arrows="1" fold="1" page="1" pageScale="1" pageWidth="827" pageHeight="1169" background="none" math="0" shadow="0">
      <root>
        <mxCell id="WIyWlLk6GJQsqaUBKTNV-0" />
        <mxCell id="WIyWlLk6GJQsqaUBKTNV-1" parent="WIyWlLk6GJQsqaUBKTNV-0" />
        <mxCell id="E88mNxyk3tsjmcS1XN3Y-6" style="edgeStyle=orthogonalEdgeStyle;rounded=1;orthogonalLoop=1;jettySize=auto;html=1;exitX=0.5;exitY=1;exitDx=0;exitDy=0;fillColor=#dae8fc;strokeColor=#3333FF;strokeWidth=1;" edge="1" parent="WIyWlLk6GJQsqaUBKTNV-1" source="WIyWlLk6GJQsqaUBKTNV-3" target="E88mNxyk3tsjmcS1XN3Y-1">
          <mxGeometry relative="1" as="geometry" />
        </mxCell>
        <mxCell id="WIyWlLk6GJQsqaUBKTNV-3" value="User" style="rounded=1;whiteSpace=wrap;html=1;fontSize=12;glass=0;strokeWidth=1;shadow=0;fillColor=#dae8fc;strokeColor=#6c8ebf;" parent="WIyWlLk6GJQsqaUBKTNV-1" vertex="1">
          <mxGeometry x="330" y="130" width="120" height="40" as="geometry" />
        </mxCell>
        <mxCell id="E88mNxyk3tsjmcS1XN3Y-14" style="edgeStyle=orthogonalEdgeStyle;rounded=1;orthogonalLoop=1;jettySize=auto;html=1;exitX=0.5;exitY=1;exitDx=0;exitDy=0;entryX=0.5;entryY=0;entryDx=0;entryDy=0;strokeWidth=1;strokeColor=#3333ff;" edge="1" parent="WIyWlLk6GJQsqaUBKTNV-1" source="E88mNxyk3tsjmcS1XN3Y-0" target="E88mNxyk3tsjmcS1XN3Y-10">
          <mxGeometry relative="1" as="geometry">
            <mxPoint x="290" y="430" as="targetPoint" />
          </mxGeometry>
        </mxCell>
        <mxCell id="E88mNxyk3tsjmcS1XN3Y-0" value="Select PDF File" style="rounded=1;whiteSpace=wrap;html=1;fillColor=#dae8fc;strokeColor=#6c8ebf;strokeWidth=1;" vertex="1" parent="WIyWlLk6GJQsqaUBKTNV-1">
          <mxGeometry x="230" y="330" width="120" height="60" as="geometry" />
        </mxCell>
        <mxCell id="E88mNxyk3tsjmcS1XN3Y-4" style="edgeStyle=orthogonalEdgeStyle;rounded=1;orthogonalLoop=1;jettySize=auto;html=1;exitX=0.5;exitY=1;exitDx=0;exitDy=0;strokeWidth=1;strokeColor=#3333ff;" edge="1" parent="WIyWlLk6GJQsqaUBKTNV-1" source="E88mNxyk3tsjmcS1XN3Y-1" target="E88mNxyk3tsjmcS1XN3Y-0">
          <mxGeometry relative="1" as="geometry">
            <Array as="points">
              <mxPoint x="390" y="300" />
              <mxPoint x="300" y="300" />
            </Array>
          </mxGeometry>
        </mxCell>
        <mxCell id="E88mNxyk3tsjmcS1XN3Y-8" style="edgeStyle=orthogonalEdgeStyle;rounded=1;orthogonalLoop=1;jettySize=auto;html=1;exitX=0.5;exitY=1;exitDx=0;exitDy=0;strokeWidth=1;strokeColor=#3333ff;" edge="1" parent="WIyWlLk6GJQsqaUBKTNV-1" source="E88mNxyk3tsjmcS1XN3Y-1" target="E88mNxyk3tsjmcS1XN3Y-7">
          <mxGeometry relative="1" as="geometry">
            <Array as="points">
              <mxPoint x="390" y="300" />
              <mxPoint x="500" y="300" />
            </Array>
          </mxGeometry>
        </mxCell>
        <mxCell id="E88mNxyk3tsjmcS1XN3Y-1" value="Upload PDF File" style="rounded=1;whiteSpace=wrap;html=1;fillColor=#dae8fc;strokeColor=#6c8ebf;strokeWidth=1;" vertex="1" parent="WIyWlLk6GJQsqaUBKTNV-1">
          <mxGeometry x="330" y="220" width="120" height="60" as="geometry" />
        </mxCell>
        <mxCell id="E88mNxyk3tsjmcS1XN3Y-16" value="" style="edgeStyle=orthogonalEdgeStyle;rounded=1;orthogonalLoop=1;jettySize=auto;html=1;strokeWidth=1;strokeColor=#3333ff;" edge="1" parent="WIyWlLk6GJQsqaUBKTNV-1" source="E88mNxyk3tsjmcS1XN3Y-7" target="E88mNxyk3tsjmcS1XN3Y-9">
          <mxGeometry relative="1" as="geometry" />
        </mxCell>
        <mxCell id="E88mNxyk3tsjmcS1XN3Y-7" value="Enter Keywords" style="rounded=1;whiteSpace=wrap;html=1;fillColor=#dae8fc;strokeColor=#6c8ebf;strokeWidth=1;" vertex="1" parent="WIyWlLk6GJQsqaUBKTNV-1">
          <mxGeometry x="430" y="380" width="120" height="60" as="geometry" />
        </mxCell>
        <mxCell id="E88mNxyk3tsjmcS1XN3Y-22" style="edgeStyle=orthogonalEdgeStyle;rounded=1;orthogonalLoop=1;jettySize=auto;html=1;exitX=0.5;exitY=1;exitDx=0;exitDy=0;entryX=0.5;entryY=0;entryDx=0;entryDy=0;strokeWidth=1;strokeColor=#66FF66;" edge="1" parent="WIyWlLk6GJQsqaUBKTNV-1" source="E88mNxyk3tsjmcS1XN3Y-9" target="E88mNxyk3tsjmcS1XN3Y-17">
          <mxGeometry relative="1" as="geometry">
            <Array as="points">
              <mxPoint x="490" y="670" />
              <mxPoint x="390" y="670" />
            </Array>
          </mxGeometry>
        </mxCell>
        <mxCell id="E88mNxyk3tsjmcS1XN3Y-9" value="Encode with Chinese Transformer" style="rounded=1;whiteSpace=wrap;html=1;fillColor=#d5e8d4;strokeColor=#82b366;strokeWidth=1;" vertex="1" parent="WIyWlLk6GJQsqaUBKTNV-1">
          <mxGeometry x="430" y="510" width="120" height="60" as="geometry" />
        </mxCell>
        <mxCell id="E88mNxyk3tsjmcS1XN3Y-15" value="" style="edgeStyle=orthogonalEdgeStyle;rounded=1;orthogonalLoop=1;jettySize=auto;html=1;strokeWidth=1;strokeColor=#66FF66;" edge="1" parent="WIyWlLk6GJQsqaUBKTNV-1" source="E88mNxyk3tsjmcS1XN3Y-10" target="E88mNxyk3tsjmcS1XN3Y-11">
          <mxGeometry relative="1" as="geometry" />
        </mxCell>
        <mxCell id="E88mNxyk3tsjmcS1XN3Y-10" value="Extract Tables" style="rounded=1;whiteSpace=wrap;html=1;fillColor=#d5e8d4;strokeColor=#82b366;strokeWidth=1;" vertex="1" parent="WIyWlLk6GJQsqaUBKTNV-1">
          <mxGeometry x="230" y="440" width="120" height="60" as="geometry" />
        </mxCell>
        <mxCell id="E88mNxyk3tsjmcS1XN3Y-20" style="edgeStyle=orthogonalEdgeStyle;rounded=1;orthogonalLoop=1;jettySize=auto;html=1;exitX=0.5;exitY=1;exitDx=0;exitDy=0;entryX=0.5;entryY=0;entryDx=0;entryDy=0;strokeWidth=1;strokeColor=#66FF66;" edge="1" parent="WIyWlLk6GJQsqaUBKTNV-1" source="E88mNxyk3tsjmcS1XN3Y-11" target="E88mNxyk3tsjmcS1XN3Y-17">
          <mxGeometry relative="1" as="geometry" />
        </mxCell>
        <mxCell id="E88mNxyk3tsjmcS1XN3Y-11" value="Encode with Chinese Transformer" style="rounded=1;whiteSpace=wrap;html=1;fillColor=#d5e8d4;strokeColor=#82b366;strokeWidth=1;" vertex="1" parent="WIyWlLk6GJQsqaUBKTNV-1">
          <mxGeometry x="230" y="580" width="120" height="60" as="geometry" />
        </mxCell>
        <mxCell id="E88mNxyk3tsjmcS1XN3Y-19" value="" style="edgeStyle=orthogonalEdgeStyle;rounded=1;orthogonalLoop=1;jettySize=auto;html=1;strokeWidth=1;strokeColor=#66FF66;" edge="1" parent="WIyWlLk6GJQsqaUBKTNV-1" source="E88mNxyk3tsjmcS1XN3Y-17" target="E88mNxyk3tsjmcS1XN3Y-18">
          <mxGeometry relative="1" as="geometry" />
        </mxCell>
        <mxCell id="E88mNxyk3tsjmcS1XN3Y-17" value="Cosine Similarity" style="rounded=1;whiteSpace=wrap;html=1;fillColor=#d5e8d4;strokeColor=#82b366;strokeWidth=1;" vertex="1" parent="WIyWlLk6GJQsqaUBKTNV-1">
          <mxGeometry x="330" y="700" width="120" height="60" as="geometry" />
        </mxCell>
        <mxCell id="E88mNxyk3tsjmcS1XN3Y-18" value="Output Table with Highest Similarity" style="rounded=1;whiteSpace=wrap;html=1;fillColor=#f8cecc;strokeColor=#b85450;strokeWidth=1;" vertex="1" parent="WIyWlLk6GJQsqaUBKTNV-1">
          <mxGeometry x="330" y="810" width="120" height="60" as="geometry" />
        </mxCell>
      </root>
    </mxGraphModel>
  </diagram>
</mxfile>
